<?xml version="1.0" encoding="UTF-8"?>
<svg width="210mm" height="297mm" version="1.1" viewBox="0 0 793.7 1122.5" xml:space="preserve" xmlns="http://www.w3.org/2000/svg"><g><g transform="matrix(.38547 0 0 .38547 0 1043.8)"><g transform="matrix(.1 0 0 -.1 0 207)" fill="#ecdbce"><path d="m0 1969v-21l24 6 25 6 7-11c3-6 15-9 25-6s22 1 25-4c3-6 13-9 22-8 10 1 24-1 32-4s83-19 165-36c234-47 500-103 503-106 2-1-14-6-35-9-90-17-368-91-488-131-72-24-169-62-217-84l-88-41v-1490h6005c3303 0 6005 3 6005 6 0 21-162 127-274 179-96 45-267 103-376 129-176 40-304 61-515 81l-160 16-432 9c-495 11-736 23-1013 50-58 6-136 13-175 15-38 3-81 8-95 10-14 3-47 7-75 10-483 52-1088 166-1590 302-71 19-143 39-160 43-16 4-102 31-190 58-160 50-523 158-580 172-89 23-191 52-204 60l-16 8 25 6c14 3 81 15 150 26 222 38 587 111 745 150 50 12 101 24 115 26 14 3 68 16 120 31 52 14 106 28 120 30 14 3 124 34 245 69 245 70 550 149 617 159 24 4 75 13 113 21 80 17 241 46 390 69 91 14 426 47 580 56l190 12 380-12 85-16c187-33 360-95 573-203s430-255 700-474c87-72 321-298 527-512 73-76 239-220 306-266 12-8 50-35 85-59 99-68 234-147 347-202l104-51 44-4 44-5v9c0 4-35 24-77 42-218 94-454 242-648 403-33 27-166 156-295 286-249 251-379 369-556 507-105 82-355 254-369 254-3 0-25 13-48 28-58 40-263 141-372 184-102 40-291 92-304 83-6-3-13 0-17 6l-6 11-29-6c-15-3-31-1-34 4s-19 7-34 4l-29-6-6 11c-8 12-56 15-56 4 0-5-108-8-240-8s-240 3-240 8c0 10-68 9-74-2-3-5-24-11-46-13l-40-4-3 11-4 10-24-12c-32-15-79-22-79-12 0 14-35 11-66-6l-28-14-8 12-7 12-42-26-33 7-34 6-6-11-7-11-76 12-7-10c-4-6-13-9-20-6-33 13-461-66-741-137-87-22-164-44-171-49-6-6-13-8-16-5-2 3-43-7-89-21s-160-45-254-69c-93-24-223-57-288-74s-168-42-230-56-119-28-127-32c-8-3-20-5-27-4-6 1-14-3-17-8s-15-7-25-4-22 0-25-6c-4-5-13-8-21-4-9 3-21 0-29-6-7-6-15-9-18-6-5 5-100-11-128-22-8-4-19-5-24-4s-16-1-25-5c-9-3-29-7-46-9-46-4-119-15-244-36-62-10-143-22-180-25l-66-6-110 31c-229 65-477 131-674 181-113 28-263 66-335 84-177 45-457 112-531 126-33 6-78 16-100 21-127 31-620 106-935 143-118 14-323 35-455 47l-240 21-907 10-192-11c-105-7-270-21-366-33-197-24-269-27-287-15-7 5-19 7-28 4-8-4-17-2-21 4-3 6-12 8-20 5-7-3-16 0-20 5l-6 11-23-6-24-6-6 11c-4 6-13 8-21 5-7-3-16 0-20 5-3 6-15 9-25 6s-22-1-25 5c-3 5-13 7-21 4-9-4-22-1-30 5-7 7-16 9-20 6-3-4-12-2-19 4-8 6-20 9-29 6-8-4-17-2-21 4-3 5-13 9-22 8-10-1-25 1-35 6-10 4-21 5-24 1-3-3-11-2-17 3-9 8-362 81-389 81-4 0-7-9-7-21zm1607-325c-3-3-12-4-19-1l-13 5 19 1c11 1 17-2 13-5zm40-10c-3-3-12-4-19-1l-13 5 19 1c11 1 17-2 13-5zm1060-220c-3-3-12-4-19-1l-13 5 19 1c11 1 17-2 13-5zm50-10c-3-3-12-4-19-1l-13 5 19 1c11 1 17-2 13-5zm50-10c-3-3-12-4-19-1l-13 5 19 1c11 1 17-2 13-5zm50-10c-3-3-12-4-19-1l-13 5 19 1c11 1 17-2 13-5zm50-10c-3-3-12-4-19-1l-13 5 19 1c11 1 17-2 13-5zm50-10c-3-3-12-4-19-1l-13 5 19 1c11 1 17-2 13-5zm60-10c-3-3-12-4-19-1l-13 5 19 1c11 1 17-2 13-5zm2880-190c-3-3-12-4-19-1l-13 5 19 1c11 1 17-2 13-5zm-1700-10c-3-3-12-4-19-1l-13 5 19 1c11 1 17-2 13-5zm1610 0c-3-3-12-4-19-1l-13 5 19 1c11 1 17-2 13-5zm-1509-11c-10-2-26-2-35 0-10 3-2 5 17 5s27-2 18-5zm1425 0c-7-2-19-2-25 0-7 3-2 5 12 5s19-2 13-5zm-1305-10c-10-2-26-2-35 0-10 3-2 5 17 5s27-2 18-5zm1185 0c-13-2-35-2-50 0-16 2-5 4 22 4 28 0 40-2 28-4zm-1065-10c-15-2-42-2-60 0s-6 4 27 4 48-2 33-4zm950 0c-15-2-42-2-60 0s-6 4 27 4 48-2 33-4zm-223-14c-144-8-475-8-595 0l-95 6h800z"/></g><g transform="matrix(.1 0 0 -.1 0 207)" fill="#b67c66"><path d="m0 1970c0-5 10-12 23-15 24-5 170-31 227-40 80-13 413-83 865-181 264-58 514-111 555-119 41-7 233-47 425-89 425-91 771-162 885-181 47-8 182-32 300-54 763-143 1247-201 1675-201 564 0 1218 82 1960 245 340 75 538 125 812 206 432 127 907 220 1383 270l205 22 310 1h310l90-17c110-22 291-77 405-124 109-45 244-112 340-170 90-55 317-210 381-261 25-20 90-73 145-116 54-44 232-213 394-376l295-295 95-71c52-39 131-96 175-126 151-103 430-248 478-248l22 1-166 83c-332 166-567 342-836 626-239 252-475 463-692 618-150 107-315 209-441 272-205 103-394 170-581 207l-94 18h-630l-135-13c-192-19-476-58-637-87-261-48-629-135-843-198-216-65-518-142-750-192-617-133-991-190-1490-226l-175-13h-640l-135 12c-74 7-157 15-185 17-27 3-77 7-110 10-321 30-1427 235-2345 435-173 37-353 76-400 85s-283 59-525 110c-242 52-480 101-530 110-49 9-159 29-242 46-84 16-157 29-163 29-5 0-10-4-10-10z"/></g></g><g transform="matrix(.39267 0 0 .39267 309.15 0)"><g transform="matrix(.1 0 0 -.1 0 201)" fill="#ecdbce"><path d="m2296 2001c5-4 52-23 104-41 103-35 269-115 372-178 71-43 224-158 275-205l31-29 11 6c6 4 11 2 11-3 0-6 42-53 93-105 50-52 112-122 137-156 71-96 213-266 315-376 88-94 292-283 395-365 66-52 214-150 294-193 105-57 251-112 341-129l80-15 142 10 14-22h138l7 11 7 12 93-7 93-6 6 10 7 11 29-6c15-4 72-1 126 5 111 13 361 57 376 67 5 3 26 7 46 8 72 5 285 67 671 195 179 60 388 125 465 145s172 45 210 55c39 11 93 24 120 29 28 6 59 12 70 15 11 2 89 18 174 35l154 31 251-81c138-44 276-89 306-99 104-36 455-140 600-179 232-62 277-73 365-91 320-66 777-128 1105-150 190-13 630-13 801 0 73 6 197 20 273 32l140 21 75-18c42-10 153-37 246-60 420-105 475-115 475-86 0 9-61 31-85 31-24-1-595 144-595 150 0 4 17 11 38 14 51 9 239 71 342 113 86 35 211 100 263 135l27 19v1449h-9240v-9c0-5 3-11 8-13 4-1 18-19 32-39 36-52 109-128 165-171 69-54 224-131 338-167 100-32 243-65 332-75 28-3 91-11 140-16 50-6 243-15 430-20 317-9 445-16 670-40 50-5 119-12 155-15 94-9 199-23 330-46 63-11 156-27 205-35 146-25 527-119 705-174 150-46 282-92 490-170 41-15 163-58 270-96 107-37 209-73 225-80l30-12-30-8c-16-4-34-9-38-11-5-3-27-6-50-8-49-3-415-90-597-142-69-19-217-66-330-105-314-107-503-163-702-208-101-23-190-44-198-48-8-3-22-4-32-3-9 1-19-3-22-8-4-6-13-8-20-5-8 3-90-5-182-18l-169-22h-510l-100 27c-276 76-573 272-875 576-69 69-161 168-205 220-44 51-85 99-90 105-6 6-35 43-64 81-74 98-203 244-248 281-21 18-69 57-108 88-38 32-77 63-86 70-85 70-302 195-449 259l-115 49-54 4-54 3zm6011-1107c-3-3-12-4-19-1l-13 5 19 1c11 1 17-2 13-5zm-480-50c-3-3-12-4-19-1l-13 5 19 1c11 1 17-2 13-5zm1340 0c-3-3-12-4-19-1l-13 5 19 1c11 1 17-2 13-5zm-1404-11c-7-2-19-2-25 0-7 3-2 5 12 5s19-2 13-5zm1464 1c-3-3-12-4-19-1l-13 5 19 1c11 1 17-2 13-5zm60-10c-3-3-12-4-19-1l-13 5 19 1c11 1 17-2 13-5z"/></g><g transform="matrix(.1 0 0 -.1 0 201)" fill="#bc8672"><path d="m2306 2001c5-5 43-19 84-31 104-30 315-135 435-216 111-75 208-149 244-188 14-14 30-26 37-26 19 0 145-139 289-320 175-219 318-374 478-517 302-270 561-419 824-472l101-21h179c203 0 378 17 643 60 245 41 514 111 801 210 260 89 444 147 594 185 55 14 141 37 190 49 219 58 597 122 930 158l110 12h260l260 1 140-18c363-47 707-114 1245-243 186-45 581-143 735-184 139-36 332-86 525-136 201-51 734-181 818-199 84-17 105-19 98-6-3 4-34 14-68 20-66 13-530 128-823 205-440 115-577 150-795 205-475 120-794 195-1115 261-214 44-285 56-505 86l-195 26-464 10-147-11c-252-21-510-57-739-106-383-80-661-159-1130-319l-190-65-225-54c-233-56-278-65-520-98l-145-20-422-12-83 12c-182 27-403 122-598 258-156 109-241 181-402 343-144 143-261 277-417 476-95 120-185 209-330 324-131 105-271 195-413 266-87 43-253 104-283 104h-21z"/></g></g></g></svg>
